#!OML:ASF F:\VICON\USERDATA\INSTALL\rory3\rory3.ASF
:FULLY-SPECIFIED
:DEGREES
251
root -4.93708 18.5194 4.35177 5.8473 -46.9225 -2.5983
lowerback 11.1528 -3.02775 1.21392
upperback 5.14803 -4.03298 -2.47034
thorax -1.13221 -2.01505 -2.75596
lowerneck -10.3936 6.55471 -5.00697
upperneck 26.6718 10.71 -3.04852
head 10.1437 3.9062 0.969519
rclavicle 1.47101e-014 1.27222e-014
rhumerus -9.56111 35.873 -85.9314
rradius 125.089
rwrist -12.7236
rhand -41.615 1.65946
rfingers 7.12502
rthumb -14.5242 -27.8121
lclavicle 1.47101e-014 1.27222e-014
lhumerus 3.03309 -19.2534 97.1133
lradius 39.2566
lwrist 0.674898
lhand -39.0445 32.6407
lfingers 7.12502
lthumb -12.0466 62.274
rfemur -17.7493 17.3001 20.1098
rtibia 32.1255
rfoot -18.8979 -11.4471
rtoes 2.9105
lfemur -25.9242 5.41969 -9.35185
ltibia 54.4361
lfoot 8.27929 -17.1479
ltoes -8.51837
252
root -4.96658 18.5218 4.36377 5.6436 -46.9334 -2.47303
lowerback 11.1378 -3.04339 1.27098
upperback 5.1829 -4.0493 -2.50018
thorax -1.09449 -2.02203 -2.81881
lowerneck -10.508 6.55012 -4.9914
upperneck 26.5917 10.6913 -2.97825
head 10.132 3.91153 0.992656
rclavicle 5.1684e-014 -3.73715e-014
rhumerus -9.27591 35.772 -85.9636
rradius 124.183
rwrist -12.3647
rhand -42.5525 1.32284
rfingers 7.12502
rthumb -15.4274 -28.0815
lclavicle 5.1684e-014 -3.73715e-014
lhumerus 3.51331 -19.5195 96.8823
lradius 38.9754
lwrist 0.423633
lhand -38.4413 32.5971
lfingers 7.12502
lthumb -11.4649 62.2636
rfemur -17.4646 17.2007 20.123
rtibia 32.0643
rfoot -19.0174 -11.3277
rtoes 3.19835
lfemur -26.0677 5.55172 -9.21261
ltibia 54.5773
lfoot 7.49324 -17.3099
ltoes -12.2964
253
root -4.99194 18.5181 4.37112 5.54009 -46.9031 -2.46298
lowerback 11.1853 -3.07676 1.36556
upperback 5.21402 -4.08426 -2.50049
thorax -1.09606 -2.03828 -2.86628
lowerneck -10.5282 6.56803 -4.71511
upperneck 26.4287 10.7174 -3.21787
head 10.1076 3.93233 0.867709
rclavicle 7.31528e-014 -3.18055e-015
rhumerus -8.91464 35.635 -85.9777
rradius 123.256
rwrist -11.9266
rhand -43.389 0.532551
rfingers 7.12502
rthumb -16.233 -28.8079
lclavicle 7.31528e-014 -3.18055e-015
lhumerus 4.01135 -19.7788 96.606
lradius 38.6543
lwrist 0.142476
lhand -37.9764 32.5528
lfingers 7.12502
lthumb -11.0166 62.2437
rfemur -17.2474 17.1122 20.2172
rtibia 32.02
rfoot -19.1199 -11.2353
rtoes 3.52505
lfemur -26.2489 5.75766 -8.99331
ltibia 54.6324
lfoot 6.51461 -17.4413
ltoes -14.0697
254
root -5.01567 18.5172 4.38454 5.50098 -46.9496 -2.56098
lowerback 11.2471 -3.10016 1.567
upperback 5.22505 -4.0941 -2.46238
thorax -1.12911 -2.04112 -2.93545
lowerneck -10.528 6.563 -4.65977
upperneck 26.3356 10.7175 -3.30613
head 10.0828 3.93332 0.827137
rclavicle -3.81667e-014 -3.81667e-014
rhumerus -8.58967 35.6162 -85.9765
rradius 122.303
rwrist -11.3356
rhand -44.4502 0.0338243
rfingers 7.12502
rthumb -17.2546 -29.2202
lclavicle -3.81667e-014 -3.81667e-014
lhumerus 4.47432 -19.7283 96.5095
lradius 38.191
lwrist -0.33409
lhand -37.8012 31.9606
lfingers 7.12502
lthumb -10.8475 61.6605
rfemur -17.0077 17.1303 20.3749
rtibia 31.9847
rfoot -19.2449 -11.2638
rtoes 3.63095
lfemur -26.3425 5.98381 -8.72714
ltibia 54.6052
lfoot 5.21845 -17.2971
ltoes -14.3823
255
root -5.04264 18.521 4.40349 5.38866 -47.0628 -2.44847
lowerback 11.1985 -3.1122 1.5499
upperback 5.20527 -4.11021 -2.39773
thorax -1.1187 -2.04975 -2.85856
lowerneck -10.4958 6.53615 -4.79356
upperneck 26.1874 10.695 -3.30562
head 10.0159 3.92007 0.842016
rclavicle -7.31528e-014 2.38542e-015
rhumerus -8.42651 35.7201 -85.9349
rradius 121.361
rwrist -10.6172
rhand -45.8379 -0.278534
rfingers 7.12502
rthumb -18.5898 -29.4103
lclavicle -7.31528e-014 2.38542e-015
lhumerus 4.84981 -19.3415 96.5706
lradius 37.7152
lwrist -0.980633
lhand -37.19 31.2426
lfingers 7.12502
lthumb -10.2579 60.9725
rfemur -16.8375 17.1673 20.3475
rtibia 31.9555
rfoot -19.3388 -11.3813
rtoes 3.13108
lfemur -26.4238 6.13916 -8.65804
ltibia 54.4593
lfoot 4.00632 -16.5881
ltoes -12.9195
256
root -5.06961 18.5241 4.41976 5.28408 -47.1569 -2.25276
lowerback 11.118 -3.14016 1.36039
upperback 5.18849 -4.16424 -2.32303
thorax -1.07785 -2.07936 -2.67187
lowerneck -10.5254 6.55136 -4.88281
upperneck 25.9935 10.7255 -3.30338
head 9.94625 3.93763 0.858058
rclavicle -3.1408e-014 1.66979e-014
rhumerus -8.15795 35.87 -85.8862
rradius 120.374
rwrist -9.94877
rhand -46.8567 -0.870317
rfingers 7.12502
rthumb -19.5695 -29.9054
lclavicle -3.1408e-014 1.66979e-014
lhumerus 5.31634 -19.0253 96.4875
lradius 37.1612
lwrist -1.48473
lhand -36.3012 31.0225
lfingers 7.12502
lthumb -9.40046 60.7929
rfemur -16.724 17.2576 20.2279
rtibia 31.8879
rfoot -19.4008 -11.4063
rtoes 3.31208
lfemur -26.5729 6.27653 -8.66591
ltibia 54.1844
lfoot 2.7825 -15.6955
ltoes -11.7392
257
root -5.0924 18.5294 4.43668 5.14235 -47.2688 -2.08548
lowerback 11.084 -3.16327 1.31427
upperback 5.23826 -4.20132 -2.36024
thorax -1.00929 -2.09785 -2.68365
lowerneck -10.5726 6.56916 -4.77784
upperneck 25.8018 10.7327 -3.33941
head 9.89337 3.95833 0.828583
rclavicle 9.06458e-014 3.97569e-015
rhumerus -7.76279 35.9045 -85.9549
rradius 119.305
rwrist -9.30563
rhand -47.7179 -1.73324
rfingers 7.12502
rthumb -20.3973 -30.682
lclavicle 9.06458e-014 3.97569e-015
lhumerus 5.91109 -18.8854 96.1827
lradius 36.471
lwrist -1.79118
lhand -35.5244 30.7569
lfingers 7.12502
lthumb -8.65086 60.5597
rfemur -16.5542 17.3022 20.1377
rtibia 31.8094
rfoot -19.4807 -11.3199
rtoes 3.83132
lfemur -26.6391 6.35051 -8.65679
ltibia 53.7738
lfoot 1.25883 -14.5722
ltoes -12.7067
258
root -5.111 18.5373 4.45454 5.07087 -47.4046 -2.00179
lowerback 10.9984 -3.16405 1.45564
upperback 5.33169 -4.19282 -2.46035
thorax -0.881782 -2.08988 -2.87569
lowerneck -10.6145 6.55406 -4.56848
upperneck 25.6126 10.6736 -3.37734
head 9.84613 3.95829 0.774597
rclavicle -3.18055e-014 1.59028e-014
rhumerus -7.3569 35.8305 -86.0556
rradius 118.181
rwrist -8.62395
rhand -48.7308 -1.97041
rfingers 7.12502
rthumb -21.3705 -30.8119
lclavicle -3.18055e-014 1.59028e-014
lhumerus 6.61802 -18.626 95.8984
lradius 35.5663
lwrist -2.32744
lhand -34.8118 30.4043
lfingers 7.12502
lthumb -7.9631 60.2343
rfemur -16.4376 17.2353 20.1062
rtibia 31.7465
rfoot -19.4344 -11.2498
rtoes 3.61526
lfemur -26.66 6.26906 -8.57718
ltibia 53.2157
lfoot -0.192538 -12.9056
ltoes -14.367
259
root -5.12712 18.5451 4.47294 5.01506 -47.5166 -1.83726
lowerback 10.9065 -3.1631 1.51845
upperback 5.35513 -4.18782 -2.51862
thorax -0.815607 -2.08537 -2.97779
lowerneck -10.5645 6.55947 -4.40323
upperneck 25.4275 10.648 -3.43468
head 9.78203 3.96822 0.720888
rclavicle -4.77083e-015 7.95139e-016
rhumerus -7.09788 35.7894 -86.1421
rradius 117.063
rwrist -8.02685
rhand -49.8591 -2.37136
rfingers 7.12502
rthumb -22.4539 -31.0861
lclavicle -4.77083e-015 7.95139e-016
lhumerus 7.22111 -18.2531 95.7947
lradius 34.5473
lwrist -2.90247
lhand -34.2436 30.0901
lfingers 7.12502
lthumb -7.41471 59.9402
rfemur -16.4163 17.1984 19.981
rtibia 31.6996
rfoot -19.3881 -11.2151
rtoes 2.90524
lfemur -26.7273 6.19726 -8.60196
ltibia 52.4983
lfoot -1.53893 -11.0885
ltoes -16.6633
260
root -5.1424 18.547 4.49211 4.91498 -47.541 -1.66642
lowerback 10.9787 -3.25185 1.4577
upperback 5.31594 -4.30931 -2.47931
thorax -0.896314 -2.14806 -2.88257
lowerneck -10.4654 6.62421 -4.42011
upperneck 25.245 10.7397 -3.51052
head 9.70194 4.0126 0.700409
rclavicle 6.40087e-014 -6.20208e-014
rhumerus -6.81988 36.0094 -86.2208
rradius 115.92
rwrist -7.6755
rhand -50.8762 -2.52922
rfingers 7.12502
rthumb -23.4299 -31.1228
lclavicle 6.40087e-014 -6.20208e-014
lhumerus 7.6784 -17.6874 95.733
lradius 33.5374
lwrist -3.42679
lhand -33.5451 29.4507
lfingers 7.12502
lthumb -6.74044 59.3234
rfemur -16.3413 17.2185 19.8636
rtibia 31.6795
rfoot -19.4874 -11.2202
rtoes 2.53105
lfemur -26.7192 6.01775 -8.62342
ltibia 51.6159
lfoot -2.62716 -9.42108
ltoes -17.0226
261
root -5.15888 18.5446 4.51667 4.84725 -47.6832 -1.61459
lowerback 11.0455 -3.31291 1.49616
upperback 5.34118 -4.38654 -2.47264
thorax -0.913186 -2.18648 -2.88469
lowerneck -10.5845 6.66158 -4.45591
upperneck 25.2209 10.7995 -3.47818
head 9.71161 4.03962 0.728091
rclavicle 2.94201e-014 1.27222e-014
rhumerus -6.48172 36.2364 -86.3565
rradius 114.733
rwrist -7.38449
rhand -51.6763 -2.40319
rfingers 7.12502
rthumb -24.1972 -30.8967
lclavicle 2.94201e-014 1.27222e-014
lhumerus 8.23775 -17.0494 95.557
lradius 32.48
lwrist -3.97362
lhand -32.8439 28.9865
lfingers 7.12502
lthumb -6.06354 58.8797
rfemur -16.2223 17.2261 19.8315
rtibia 31.6753
rfoot -19.5424 -11.1249
rtoes 2.0307
lfemur -26.5074 5.64341 -8.49125
ltibia 50.6151
lfoot -3.75748 -7.95585
ltoes -15.5299
